<svg id="Layer_1" enable-background="new 0 0 511.969 511.969" height="512" viewBox="0 0 511.969 511.969" width="512" xmlns="http://www.w3.org/2000/svg"><g><path d="m125.489 315.445-29.486 29.486 71.047 71.047 29.476-29.476c-14.122-8.91-27.353-19.458-39.45-31.555-12.111-12.111-22.67-25.36-31.587-39.502z"/><path d="m14.726 426.207c-19.586 19.588-19.586 51.459.001 71.048 9.489 9.488 22.104 14.714 35.523 14.714 13.42 0 26.035-5.226 35.523-14.714l60.064-60.064-71.047-71.047z"/><path d="m454.765 57.259c-36.925-36.924-86.019-57.259-138.238-57.259-52.22 0-101.313 20.335-138.238 57.26-76.224 76.224-76.224 200.25 0 276.474 36.925 36.924 86.019 57.26 138.238 57.26s101.313-20.335 138.237-57.26c76.224-76.225 76.224-200.25.001-276.475zm-30.906 245.57c-28.669 28.67-66.787 44.459-107.332 44.459-40.546 0-78.664-15.79-107.333-44.459-28.67-28.669-44.459-66.788-44.459-107.333s15.789-78.664 44.459-107.333c28.669-28.67 66.787-44.459 107.333-44.459 40.545 0 78.663 15.789 107.332 44.459 28.67 28.669 44.459 66.788 44.459 107.333 0 40.546-15.789 78.664-44.459 107.333z"/><path d="m402.647 109.376c-23.003-23.003-53.588-35.672-86.119-35.672-32.532 0-63.117 12.668-86.12 35.672-23.004 23.003-35.672 53.588-35.672 86.12s12.668 63.116 35.672 86.119c23.004 23.004 53.588 35.673 86.12 35.673 32.531 0 63.116-12.669 86.119-35.672 23.004-23.003 35.672-53.588 35.672-86.12-.001-32.532-12.669-63.116-35.672-86.12zm-139.184 160.397-21.213-21.213 21.215-21.214 21.213 21.214zm116.139-62.46c-10.002 10.001-23.3 15.51-37.445 15.51-8.993 0-17.644-2.227-25.323-6.419l-16.145 16.144-21.213-21.213 35.842-35.842 10.606 10.606c4.336 4.336 10.101 6.724 16.232 6.724s11.896-2.388 16.232-6.724 6.724-10.101 6.724-16.232c0-6.132-2.388-11.896-6.724-16.232s-10.101-6.724-16.232-6.724-11.896 2.388-16.232 6.724l-21.213-21.214c10.002-10.002 23.301-15.51 37.445-15.51 14.146 0 27.443 5.509 37.445 15.511 10.002 10.001 15.511 23.3 15.511 37.445s-5.508 27.444-15.51 37.446z"/></g></svg>